<svg version="1" xmlns="http://www.w3.org/2000/svg" width="800" height="800" viewBox="0 0 600.000000 600.000000"><path d="M170.7 116.4c-.6 2.1 0 182.2.7 187.6.4 3 .9 7.3 1.2 9.5 1.1 8.4 5.7 23.4 10.1 32.5 13.3 27.5 34.7 43.5 66.3 49.6 5.7 1 36.1 1.4 41 .5 2.5-.5 6.2-1.2 8.3-1.5 2.1-.3 4.7-1.1 5.7-1.6 1-.6 2.7-1 3.8-1 1 0 6.8-2.5 12.8-5.5 12-6 21.8-14.3 28.2-23.9l3.2-4.9V391h69V115.4H346.3l-.1 83c0 45.7-.3 84.7-.6 86.6-2.3 13.3-7 24.8-13 31.6-4.7 5.5-12.6 10.6-20.6 13.4-8.1 2.9-28 3.7-35.2 1.5-18.1-5.4-28-18.5-30.6-40.5-.5-4.1-1-43.5-1-87.5s-.1-81.8-.1-84.1l-.1-4h-37c-25.1 0-37 .3-37.3 1zM221.7 472.6c-.2.2-43.8 1.5-56.4 1.8-4.5 0-8.6.5-9.1 1.1-1.8 1.9-2.3 5.3-1 6.6.7.8 1.4 2.7 1.5 4.2.2 2.8 3.2 6.1 6.8 7.3 1.1.4 3.1 1.9 4.5 3.5 4.3 4.5 8.5 5 42.3 5 17.2 0 32.3-.2 33.7-.5 1.4-.2 4.6-.7 7.1-1 2.5-.4 5.7-.9 7-1.1 3.3-.5 8.5-1.3 14.4-2.1 6.8-.9 8.7-1.2 9.3-1.9.3-.3-.2-.5-1.1-.5-2.4 0-2.1-1.7.3-2.5 1.2-.4 1.7-1.1 1.3-1.8-.4-.7-.8-2.3-.9-3.6 0-1.3-.7-2.9-1.5-3.5-.8-.6-1.5-1.8-1.7-2.6-.7-2.8-2.3-3.8-6-3.5-3.6.2-3.6.2-.9-.8 3-1.2 3.4-2.1 1.5-3.4-1-.6-50.4-1.3-51.1-.7zM373.7 472.7c-.3.2-38.4 1.4-50.9 1.6-5.3.1-10.1.6-10.6 1.2-1.9 2-2.3 5.3-.8 6.8.8.8 1.2 1.8.8 2.1-1.4 1.5 3.1 7.4 6.9 9.1 2.1 1 3.9 2.2 3.9 2.6 0 1.5 4.8 4.1 9.2 5.1 4.7 1 57.4 1.3 67.8.3 3.6-.3 8.8-1 11.5-1.5 5.7-1 10.2-1.7 17.7-2.6 2.9-.4 6.2-1 7.3-1.5 1.8-.7 1.8-.8-.5-.8l-2.5-.1 2.8-1.9c1.7-1 2.4-2.1 1.9-2.5-.6-.4-.9-1.5-.7-2.6.2-1.2-.5-2.9-1.7-3.9-1.1-1.1-1.8-2.4-1.4-2.9.9-1.5-2.8-4.2-5.2-3.7-1.2.2-2.2 0-2.2-.6 0-.5.7-.9 1.5-.9 1.8 0 2-1.6.3-2.7-1-.6-54.5-1.3-55.1-.6z"/></svg>